<?xml version="1.0" encoding="UTF-8" standalone="no"?>
<!-- Created with Inkscape (http://www.inkscape.org/) -->

<svg
   xmlns:dc="http://purl.org/dc/elements/1.1/"
   xmlns:cc="http://creativecommons.org/ns#"
   xmlns:rdf="http://www.w3.org/1999/02/22-rdf-syntax-ns#"
   xmlns:svg="http://www.w3.org/2000/svg"
   xmlns="http://www.w3.org/2000/svg"
   xmlns:sodipodi="http://sodipodi.sourceforge.net/DTD/sodipodi-0.dtd"
   xmlns:inkscape="http://www.inkscape.org/namespaces/inkscape"
   width="210mm"
   height="297mm"
   viewBox="0 0 744.09448819 1052.3622047"
   id="svg2"
   version="1.1"
   inkscape:version="0.91 r13725"
   sodipodi:docname="deets.svg">
  <defs
     id="defs4" />
  <sodipodi:namedview
     id="base"
     pagecolor="#ffffff"
     bordercolor="#666666"
     borderopacity="1.0"
     inkscape:pageopacity="0.0"
     inkscape:pageshadow="2"
     inkscape:zoom="1"
     inkscape:cx="357.90093"
     inkscape:cy="411.60155"
     inkscape:document-units="px"
     inkscape:current-layer="layer1"
     showgrid="false"
     inkscape:window-width="1920"
     inkscape:window-height="1017"
     inkscape:window-x="-8"
     inkscape:window-y="-8"
     inkscape:window-maximized="1" />
  <metadata
     id="metadata7">
    <rdf:RDF>
      <cc:Work
         rdf:about="">
        <dc:format>image/svg+xml</dc:format>
        <dc:type
           rdf:resource="http://purl.org/dc/dcmitype/StillImage" />
        <dc:title />
      </cc:Work>
    </rdf:RDF>
  </metadata>
  <g
     inkscape:label="Layer 1"
     inkscape:groupmode="layer"
     id="layer1">
    <flowRoot
       xml:space="preserve"
       id="flowRoot3336"
       style="font-style:normal;font-weight:normal;font-size:40px;line-height:125%;font-family:sans-serif;letter-spacing:0px;word-spacing:0px;fill:#000000;fill-opacity:1;stroke:none;stroke-width:1px;stroke-linecap:butt;stroke-linejoin:miter;stroke-opacity:1"><flowRegion
         id="flowRegion3338"><rect
           id="rect3340"
           width="700"
           height="1008.5714"
           x="25.714285"
           y="26.647919" /></flowRegion><flowPara
         id="flowPara3342"
         style="text-anchor:middle;text-align:center">Shuriken</flowPara></flowRoot>    <path
       style="fill:none;fill-rule:evenodd;stroke:#000000;stroke-width:1px;stroke-linecap:butt;stroke-linejoin:miter;stroke-opacity:1"
       d="m 287,78.362209 c 1.33333,0 2.66667,0 4,0 8,0 16,0 24,0 2.66667,0 5.33333,0 8,0 1,0 2.01942,-0.196116 3,0 0.73088,0.146176 1.2604,0.90755 2,1 2.72935,0.341169 6.95106,0 10,0 13.66667,0 27.33333,0 41,0 4,0 8,0 12,0 0.84864,0 5.44872,0.183759 6,0 0.44721,-0.149071 0.54267,-0.885668 1,-1 0.97014,-0.242536 2,0 3,0 2,0 4,0 6,0 4,0 8,0 12,0 0.90136,0 4.3706,0.2098 5,0 0.7071,-0.235702 1.26912,-0.853824 2,-1 1.30744,-0.261488 2.66666,0 4,0 2.66666,0 5.33333,0 8,0 4.66666,0 9.33333,0 14,0 0.52292,0 3.73706,0.131471 4,0 0.42164,-0.210819 0.57836,-0.789182 1,-1 0.29814,-0.149071 0.66666,0 1,0 0.33333,0 1,-0.333333 1,0 0,0.333333 -0.66667,0 -1,0"
       id="path3344"
       inkscape:connector-curvature="0" />
    <text
       xml:space="preserve"
       style="font-style:normal;font-weight:normal;font-size:40px;line-height:125%;font-family:sans-serif;letter-spacing:0px;word-spacing:0px;fill:#000000;fill-opacity:1;stroke:none;stroke-width:1px;stroke-linecap:butt;stroke-linejoin:miter;stroke-opacity:1"
       x="11.000001"
       y="126.36221"
       id="text3346"
       sodipodi:linespacing="125%"><tspan
         sodipodi:role="line"
         id="tspan3348"
         x="11.000001"
         y="126.36221">ninja in a dojo</tspan><tspan
         sodipodi:role="line"
         x="11.000001"
         y="176.36221"
         id="tspan3350">collect Chi</tspan><tspan
         sodipodi:role="line"
         x="11.000001"
         y="226.36221"
         id="tspan3352">Keiken - exp</tspan><tspan
         sodipodi:role="line"
         x="11.000001"
         y="276.36221"
         id="tspan3384">ninjitzo belt system</tspan><tspan
         sodipodi:role="line"
         x="11.000001"
         y="326.36221"
         id="tspan3386">colour in japanese on head</tspan><tspan
         sodipodi:role="line"
         x="11.000001"
         y="376.36221"
         id="tspan3382">Shurikens break after X rebounds</tspan><tspan
         sodipodi:role="line"
         x="11.000001"
         y="426.36221"
         id="tspan3354">Modes:</tspan><tspan
         sodipodi:role="line"
         x="11.000001"
         y="476.36221"
         id="tspan3356">Endless - waves keep coming, leaderboards</tspan><tspan
         sodipodi:role="line"
         x="11.000001"
         y="526.36218"
         id="tspan3358">Story - bosses, saving</tspan><tspan
         sodipodi:role="line"
         x="11.000001"
         y="576.36218"
         id="tspan3364">Forever - Shurikens never break</tspan><tspan
         sodipodi:role="line"
         x="11.000001"
         y="626.36218"
         id="tspan3357">broken floor</tspan><tspan
         sodipodi:role="line"
         x="11.000001"
         y="676.36218"
         id="tspan3359">Music:</tspan><tspan
         sodipodi:role="line"
         x="11.000001"
         y="726.36218"
         id="tspan3361">menu</tspan><tspan
         sodipodi:role="line"
         x="11.000001"
         y="776.36218"
         id="tspan3363">bosses</tspan><tspan
         sodipodi:role="line"
         x="11.000001"
         y="826.36218"
         id="tspan3365">endless</tspan><tspan
         sodipodi:role="line"
         x="11.000001"
         y="876.36218"
         id="tspan3367">ingame</tspan><tspan
         sodipodi:role="line"
         x="11.000001"
         y="926.36218"
         id="tspan3360" /></text>
    <text
       xml:space="preserve"
       style="font-style:normal;font-weight:normal;font-size:40px;line-height:125%;font-family:sans-serif;letter-spacing:0px;word-spacing:0px;fill:#000000;fill-opacity:1;stroke:none;stroke-width:1px;stroke-linecap:butt;stroke-linejoin:miter;stroke-opacity:1"
       x="217"
       y="168.36221"
       id="text3368"
       sodipodi:linespacing="125%"><tspan
         sodipodi:role="line"
         id="tspan3370"
         x="217"
         y="168.36221" /><tspan
         sodipodi:role="line"
         x="217"
         y="218.36221"
         id="tspan3372" /><tspan
         sodipodi:role="line"
         x="217"
         y="268.36221"
         id="tspan3374" /></text>
    <text
       xml:space="preserve"
       style="font-style:normal;font-weight:normal;font-size:40px;line-height:125%;font-family:sans-serif;letter-spacing:0px;word-spacing:0px;fill:#000000;fill-opacity:1;stroke:none;stroke-width:1px;stroke-linecap:butt;stroke-linejoin:miter;stroke-opacity:1"
       x="217"
       y="169.36221"
       id="text3376"
       sodipodi:linespacing="125%"><tspan
         sodipodi:role="line"
         id="tspan3378"
         x="217"
         y="169.36221" /><tspan
         sodipodi:role="line"
         x="217"
         y="219.36221"
         id="tspan3380" /></text>
  </g>
</svg>
